<svg width="24" height="24" viewBox="0 0 24 24" fill="none" xmlns="http://www.w3.org/2000/svg">
    <path d="M3.1377 12.2441C3.1377 12.7705 3.57812 13.2002 4.09375 13.2002H11.0439V20.1504C11.0439 20.666 11.4736 21.1064 12 21.1064C12.5264 21.1064 12.9668 20.666 12.9668 20.1504V13.2002H19.9062C20.4219 13.2002 20.8623 12.7705 20.8623 12.2441C20.8623 11.7178 20.4219 11.2773 19.9062 11.2773H12.9668V4.33789C12.9668 3.82227 12.5264 3.38184 12 3.38184C11.4736 3.38184 11.0439 3.82227 11.0439 4.33789V11.2773H4.09375C3.57812 11.2773 3.1377 11.7178 3.1377 12.2441Z" fill="#0148B1" />
</svg>