<svg width="24" height="24" viewBox="0 0 24 24" fill="none" xmlns="http://www.w3.org/2000/svg">
    <path d="M5.38281 12.2441C5.38281 12.5127 5.47949 12.749 5.68359 12.9531L14.2021 21.2783C14.3848 21.4717 14.6211 21.5684 14.9004 21.5684C15.459 21.5684 15.8887 21.1494 15.8887 20.5908C15.8887 20.3115 15.7705 20.0752 15.5986 19.8926L7.77832 12.2441L15.5986 4.5957C15.7705 4.41309 15.8887 4.16602 15.8887 3.89746C15.8887 3.33887 15.459 2.91992 14.9004 2.91992C14.6211 2.91992 14.3848 3.0166 14.2021 3.19922L5.68359 11.5352C5.47949 11.7285 5.38281 11.9756 5.38281 12.2441Z" fill="#0148B1" />
</svg>