<svg width="375" height="98" viewBox="0 0 375 98" fill="none" xmlns="http://www.w3.org/2000/svg">
    <path fill-rule="evenodd" clip-rule="evenodd" d="M0 49.5322H8C16 49.5322 31 49.5322 47 62.7408C63 74.8487 78 99.0644 94 97.9637C109 95.7623 125 66.043 141 60.5394C156 53.9351 172 70.4458 188 66.043C203 62.7408 219 37.4243 234 28.6186C250 20.9136 266 28.6186 281 33.0215C297 37.4243 313 37.4243 328 39.6258C344 41.8272 359 45.1294 367 47.3308L375 49.5322V0H367C359 0 344 0 328 0C313 0 297 0 281 0C266 0 250 0 234 0C219 0 203 0 188 0C172 0 156 0 141 0C125 0 109 0 94 0C78 0 63 0 47 0C31 0 16 0 8 0H0V49.5322Z" fill="#0099FF" />
    <path fill-rule="evenodd" clip-rule="evenodd" d="M0 34L5 38C10 41 19 49 29 47C38 45 48 34 58 38C67 41 77 60 87 60C96 60 106 41 115 36C125 30 135 38 144 36C154 34 163 23 173 23C183 23 192 34 202 34C212 34 221 23 231 23C240 23 250 34 260 34C269 34 279 23 288 32C298 41 308 72 317 79C327 87 337 72 346 62C356 53 365 49 370 47L375 45V0H370C365 0 356 0 346 0C337 0 327 0 317 0C308 0 298 0 288 0C279 0 269 0 260 0C250 0 240 0 231 0C221 0 212 0 202 0C192 0 183 0 173 0C163 0 154 0 144 0C135 0 125 0 115 0C106 0 96 0 87 0C77 0 67 0 58 0C48 0 38 0 29 0C19 0 10 0 5 0H0V34Z" fill="#0148B1" />
</svg>