<svg width="1280" height="132" viewBox="0 0 1280 132" fill="none" xmlns="http://www.w3.org/2000/svg">
    <path fill-rule="evenodd" clip-rule="evenodd" d="M0 77.2925L10.1587 85.1239C20.3175 92.6148 40.6349 108.278 60.9524 103.17C81.2698 98.0627 101.587 72.185 121.905 72.185C142.222 72.185 162.54 98.0627 182.857 95.3387C203.175 92.6148 223.492 61.9702 243.81 43.9239C264.127 25.8777 284.444 20.7702 304.762 30.9851C325.079 41.1999 345.397 67.0776 365.714 85.1239C386.032 103.17 406.349 113.385 426.667 118.492C446.984 123.6 467.302 123.6 487.619 121.216C507.936 118.492 528.254 113.385 548.571 116.109C568.889 118.492 589.206 128.707 609.524 131.431C629.841 133.815 650.159 128.707 670.476 116.109C690.794 103.17 711.111 82.3999 731.429 82.3999C751.746 82.3999 772.063 103.17 792.381 110.661C812.698 118.492 833.016 113.385 853.333 113.385C873.651 113.385 893.968 118.492 914.286 108.278C934.603 98.0627 954.921 72.185 975.238 64.3536C995.556 56.5222 1015.87 67.0776 1036.19 67.0776C1056.51 67.0776 1076.83 56.5222 1097.14 59.2462C1117.46 61.9702 1137.78 77.2925 1158.1 69.4611C1178.41 61.9702 1198.73 30.9851 1219.05 15.3223C1239.37 0 1259.68 0 1269.84 0H1280H1269.84C1259.68 0 1239.37 0 1219.05 0C1198.73 0 1178.41 0 1158.1 0C1137.78 0 1117.46 0 1097.14 0C1076.83 0 1056.51 0 1036.19 0C1015.87 0 995.556 0 975.238 0C954.921 0 934.603 0 914.286 0C893.968 0 873.651 0 853.333 0C833.016 0 812.698 0 792.381 0C772.063 0 751.746 0 731.429 0C711.111 0 690.794 0 670.476 0C650.159 0 629.841 0 609.524 0C589.206 0 568.889 0 548.571 0C528.254 0 507.936 0 487.619 0C467.302 0 446.984 0 426.667 0C406.349 0 386.032 0 365.714 0C345.397 0 325.079 0 304.762 0C284.444 0 264.127 0 243.81 0C223.492 0 203.175 0 182.857 0C162.54 0 142.222 0 121.905 0C101.587 0 81.2698 0 60.9524 0C40.6349 0 20.3175 0 10.1587 0H0V77.2925Z" fill="#0099FF" />
    <path fill-rule="evenodd" clip-rule="evenodd" d="M0 86.0785L7.61905 93.3572C15.2381 100.636 30.4762 114.877 45.7143 110.13C60.9524 105.383 76.1905 81.3315 91.4286 76.5845C106.667 71.8376 121.905 86.0785 137.143 83.8632C152.381 81.3315 167.619 62.3436 182.857 50.3179C198.095 38.2923 213.333 33.5453 228.571 45.571C243.81 57.5966 259.048 86.0785 274.286 105.383C289.524 124.371 304.762 134.181 320 117.409C335.238 100.636 350.476 57.5966 365.714 38.2923C380.952 19.3044 396.19 24.0513 411.429 28.7983C426.667 33.5453 441.905 38.2923 457.143 40.824C472.381 43.0392 487.619 43.0392 502.857 36.077C518.095 28.7983 533.333 14.2409 548.571 16.7726C563.81 19.3044 579.048 38.2923 594.286 40.824C609.524 43.0392 624.762 28.7983 640 33.5453C655.238 38.2923 670.476 62.3436 685.714 81.3315C700.952 100.636 716.19 114.877 731.429 110.13C746.667 105.383 761.905 81.3315 777.143 62.3436C792.381 43.0392 807.619 28.7983 822.857 36.077C838.095 43.0392 853.333 71.8376 868.571 76.5845C883.81 81.3315 899.048 62.3436 914.286 67.0906C929.524 71.8376 944.762 100.636 960 100.636C975.238 100.636 990.476 71.8376 1005.71 62.3436C1020.95 52.5332 1036.19 62.3436 1051.43 59.8119C1066.67 57.5966 1081.9 43.0392 1097.14 38.2923C1112.38 33.5453 1127.62 38.2923 1142.86 40.824C1158.1 43.0392 1173.33 43.0392 1188.57 57.5966C1203.81 71.8376 1219.05 100.636 1234.29 112.662C1249.52 124.371 1264.76 119.624 1272.38 117.409L1280 114.877V0H1272.38C1264.76 0 1249.52 0 1234.29 0C1219.05 0 1203.81 0 1188.57 0C1173.33 0 1158.1 0 1142.86 0C1127.62 0 1112.38 0 1097.14 0C1081.9 0 1066.67 0 1051.43 0C1036.19 0 1020.95 0 1005.71 0C990.476 0 975.238 0 960 0C944.762 0 929.524 0 914.286 0C899.048 0 883.81 0 868.571 0C853.333 0 838.095 0 822.857 0C807.619 0 792.381 0 777.143 0C761.905 0 746.667 0 731.429 0C716.19 0 700.952 0 685.714 0C670.476 0 655.238 0 640 0C624.762 0 609.524 0 594.286 0C579.048 0 563.81 0 548.571 0C533.333 0 518.095 0 502.857 0C487.619 0 472.381 0 457.143 0C441.905 0 426.667 0 411.429 0C396.19 0 380.952 0 365.714 0C350.476 0 335.238 0 320 0C304.762 0 289.524 0 274.286 0C259.048 0 243.81 0 228.571 0C213.333 0 198.095 0 182.857 0C167.619 0 152.381 0 137.143 0C121.905 0 106.667 0 91.4286 0C76.1905 0 60.9524 0 45.7143 0C30.4762 0 15.2381 0 7.61905 0H0V86.0785Z" fill="#0148B1" />
</svg>