<svg width="24" height="24" viewBox="0 0 24 24" fill="none" xmlns="http://www.w3.org/2000/svg">
    <path fill-rule="evenodd" clip-rule="evenodd" d="M12.0001 4C13.3671 4 14.6301 4.32 15.7651 4.821C17.4755 5.49464 18.3058 6.25995 19.7856 7.62382L19.7891 7.627C20.8216 8.64057 21.7428 9.7616 22.5371 10.971C22.9481 11.6 22.9481 12.403 22.5371 13.031C21.9931 13.863 20.7681 15.578 19.0031 17.095C17.2441 18.606 14.8531 20.001 12.0011 20.001C10.6341 20.001 9.37205 19.68 8.23605 19.18C6.51037 18.2232 5.63363 17.604 4.21205 16.374C3.17952 15.3604 2.25829 14.2394 1.46405 13.03C1.26309 12.7241 1.15601 12.366 1.15601 12C1.15601 11.634 1.26309 11.2759 1.46405 10.97C2.00805 10.138 3.23305 8.423 4.99805 6.906C6.75705 5.395 9.14805 4 12.0001 4ZM3.18005 12C3.88942 13.0696 4.70926 14.0618 5.62605 14.96C7.1122 16.2359 8.01114 16.8393 9.78005 17.633C10.4957 17.8732 11.2452 17.9971 12.0001 18C14.1841 18 16.1261 16.928 17.6991 15.577C19.2221 14.268 20.3101 12.773 20.8201 12C20.1107 10.9303 19.2909 9.93822 18.3741 9.04C17.0114 7.81361 16.1343 7.20556 14.2201 6.367C13.5044 6.12677 12.7549 6.00286 12.0001 6C9.81605 6 7.87405 7.072 6.30105 8.423C4.77805 9.732 3.69005 11.227 3.18005 12ZM11.4957 8.02935C12.3758 7.9178 13.2681 8.10201 14.0321 8.553C14.5939 8.88768 14.9057 9.1857 15.4461 9.969C15.897 10.733 16.0812 11.6252 15.9697 12.5053C15.8582 13.3854 15.4572 14.2035 14.8299 14.8308C14.2026 15.4581 13.3845 15.8591 12.5044 15.9707C11.6243 16.0822 10.732 15.898 9.96805 15.447C9.32588 14.984 9.00751 14.6827 8.55405 14.031C8.10307 13.267 7.91886 12.3748 8.0304 11.4947C8.14195 10.6146 8.54292 9.79649 9.17023 9.16918C9.79755 8.54186 10.6156 8.14089 11.4957 8.02935ZM11.4824 10.0667C11.8217 9.97589 12.1789 9.97598 12.5181 10.067C13.3683 10.2765 13.6436 10.6164 13.9321 11.482C14.0231 11.8212 14.0232 12.1784 13.9323 12.5176C13.8415 12.8569 13.6629 13.1662 13.4146 13.4145C13.1663 13.6629 12.8569 13.8414 12.5177 13.9323C12.1784 14.0231 11.8212 14.023 11.4821 13.932C10.7024 13.6954 10.2548 13.203 10.0681 12.517C9.97703 12.1778 9.97694 11.8206 10.0678 11.4814C10.1586 11.1421 10.3372 10.8328 10.5855 10.5845C10.8338 10.3361 11.1432 10.1576 11.4824 10.0667Z" fill="#0148B1" />
</svg>