<svg width="24" height="24" viewBox="0 0 24 24" fill="none" xmlns="http://www.w3.org/2000/svg">
    <path d="M12 8.06543C13.6865 8.06543 15.0938 6.6582 15.0938 4.97168C15.0938 3.26367 13.6865 1.86719 12 1.87793C10.3027 1.88867 8.89551 3.26367 8.89551 4.97168C8.89551 6.6582 10.3027 8.06543 12 8.06543ZM19.7881 8.06543C21.4854 8.06543 22.8711 6.6582 22.8711 4.97168C22.8711 3.26367 21.4854 1.86719 19.7881 1.87793C18.0801 1.88867 16.7051 3.25293 16.7051 4.97168C16.7051 6.6582 18.0908 8.06543 19.7881 8.06543ZM4.20117 8.05469C5.89844 8.05469 7.28418 6.6582 7.28418 4.98242C7.28418 3.28516 5.89844 1.87793 4.20117 1.87793C2.50391 1.87793 1.11816 3.28516 1.11816 4.98242C1.11816 6.6582 2.50391 8.05469 4.20117 8.05469ZM12 15.3486C13.6865 15.3486 15.0938 13.9414 15.0938 12.2549C15.0938 10.5576 13.6865 9.16113 12 9.17188C10.3027 9.18262 8.89551 10.5576 8.89551 12.2549C8.89551 13.9414 10.3027 15.3486 12 15.3486ZM4.20117 15.3486C5.89844 15.3486 7.28418 13.9414 7.28418 12.2549C7.28418 10.5576 5.8877 9.16113 4.20117 9.17188C2.50391 9.18262 1.11816 10.5576 1.11816 12.2549C1.11816 13.9414 2.50391 15.3486 4.20117 15.3486ZM19.7881 15.3486C21.4854 15.3486 22.8711 13.9414 22.8711 12.2549C22.8711 10.5576 21.4854 9.16113 19.7881 9.17188C18.0908 9.18262 16.7051 10.5576 16.7051 12.2549C16.7051 13.9414 18.0908 15.3486 19.7881 15.3486ZM4.20117 22.6318C5.89844 22.6318 7.28418 21.2461 7.28418 19.5381C7.28418 17.8516 5.8877 16.4551 4.20117 16.4551C2.50391 16.4551 1.11816 17.8408 1.11816 19.5381C1.11816 21.2246 2.50391 22.6318 4.20117 22.6318ZM12 22.6318C13.6865 22.6318 15.0938 21.2246 15.0938 19.5381C15.0938 17.8408 13.6865 16.4551 12 16.4551C10.3027 16.4551 8.89551 17.8408 8.89551 19.5381C8.89551 21.2246 10.3027 22.6318 12 22.6318ZM19.7881 22.6318C21.4854 22.6318 22.8711 21.2246 22.8711 19.5381C22.8711 17.8408 21.4854 16.4551 19.7881 16.4551C18.0908 16.4551 16.7051 17.8408 16.7051 19.5381C16.7051 21.2246 18.0908 22.6318 19.7881 22.6318Z" fill="#0148B1" />
</svg>